<?xml version="1.0" encoding="UTF-8"?>
<svg width="800" height="800" viewBox="0 0 800 800" fill="none" xmlns="http://www.w3.org/2000/svg">
  <!-- Background pattern -->
  <rect width="800" height="800" fill="#FEFAE0"/>
  
  <!-- Geometric shapes -->
  <circle cx="100" cy="100" r="40" fill="#E3D5CA" opacity="0.5"/>
  <rect x="200" y="50" width="60" height="60" transform="rotate(45)" fill="#CCD5AE" opacity="0.5"/>
  <circle cx="700" cy="200" r="30" fill="#D4A373" opacity="0.5"/>
  <rect x="600" y="300" width="40" height="40" fill="#E9EDC9" opacity="0.5"/>
  
  <!-- Pencils in Lupi's style -->
  <g transform="translate(300, 200) rotate(-30)">
    <path d="M0 0L200 0L180 20L20 20L0 0Z" fill="#2C3E50"/>
    <rect x="20" y="20" width="160" height="15" fill="#E3D5CA"/>
    <path d="M180 20L200 0L220 20L200 40L180 20Z" fill="#D4A373"/>
  </g>
  
  <g transform="translate(500, 400) rotate(45)">
    <path d="M0 0L200 0L180 20L20 20L0 0Z" fill="#2C3E50"/>
    <rect x="20" y="20" width="160" height="15" fill="#CCD5AE"/>
    <path d="M180 20L200 0L220 20L200 40L180 20Z" fill="#E9EDC9"/>
  </g>
  
  <!-- Dots and lines -->
  <circle cx="150" cy="450" r="3" fill="#2C3E50"/>
  <circle cx="170" cy="450" r="3" fill="#2C3E50"/>
  <circle cx="190" cy="450" r="3" fill="#2C3E50"/>
  
  <line x1="400" y1="600" x2="500" y2="600" stroke="#2C3E50" stroke-width="2"/>
  <line x1="520" y1="600" x2="620" y2="600" stroke="#2C3E50" stroke-width="2" stroke-dasharray="5,5"/>
  
  <!-- Additional geometric elements -->
  <path d="M100 700L150 750L100 800L50 750Z" fill="#E3D5CA" opacity="0.5"/>
  <path d="M700 700L750 750L700 800L650 750Z" fill="#D4A373" opacity="0.5"/>
</svg> 