<?xml version="1.0" standalone="no"?>
<!DOCTYPE svg PUBLIC "-//W3C//DTD SVG 20010904//EN"
 "http://www.w3.org/TR/2001/REC-SVG-20010904/DTD/svg10.dtd">
<svg version="1.0" xmlns="http://www.w3.org/2000/svg"
 width="300.000000pt" height="458.000000pt" viewBox="0 0 300.000000 458.000000"
 preserveAspectRatio="xMidYMid meet">
<metadata>
Created by potrace 1.10, written by Peter Selinger 2001-2011
</metadata>
<g transform="translate(0.000000,458.000000) scale(0.100000,-0.100000)"
fill="#000000" stroke="none">
<path d="M1249 4533 c-10 -2 -19 -13 -22 -24 -4 -16 -2 -19 14 -14 14 5 17 2
13 -8 -5 -14 20 -30 51 -32 18 -1 7 -85 -16 -121 -20 -32 -21 -49 -23 -227 0
-106 -3 -194 -6 -197 -3 -3 -3 -196 0 -430 3 -234 8 -417 13 -407 4 10 7 290
7 621 0 355 4 606 9 612 5 5 19 33 30 62 27 73 14 109 -36 103 -8 -1 -13 9
-13 24 0 14 2 25 5 25 6 0 252 -127 328 -169 73 -41 257 -163 280 -185 9 -10
17 -14 17 -11 0 7 58 -33 90 -62 8 -8 26 -23 40 -34 124 -102 312 -287 413
-406 58 -69 77 -85 77 -64 0 35 -321 365 -475 488 -207 166 -444 314 -654 409
-66 30 -121 53 -123 53 -2 -1 -10 -3 -19 -6z"/>
<path d="M1203 4453 c-3 -10 -32 -45 -64 -78 -110 -115 -166 -264 -101 -273
l22 -3 0 -557 0 -557 -77 -72 c-43 -40 -81 -73 -85 -73 -4 0 -8 -7 -8 -15 0
-8 -4 -15 -9 -15 -4 0 -36 -28 -70 -62 -33 -34 -61 -57 -61 -52 -1 5 0 228 0
497 0 329 -3 487 -10 487 -7 0 -10 -163 -10 -504 l0 -504 -211 -203 c-116
-112 -217 -208 -225 -212 -8 -4 -14 -13 -14 -19 0 -6 33 20 72 57 40 38 118
112 173 164 55 52 147 140 205 196 58 56 162 154 232 218 131 121 142 127 205
109 21 -7 21 -7 2 -30 -14 -18 -27 -23 -53 -21 -29 3 -44 -5 -103 -56 -117
-102 -213 -197 -207 -206 7 -12 5 -370 -2 -436 -3 -31 -1 -54 5 -58 13 -7 13
-11 13 265 0 125 5 213 11 225 10 19 11 19 18 -5 7 -25 7 -24 10 5 1 17 3 35
3 42 2 21 16 27 17 7 0 -17 1 -16 9 4 5 12 16 22 24 22 7 0 17 7 20 16 3 8 10
12 16 9 6 -4 13 7 16 25 13 61 22 38 20 -50 -2 -110 12 -106 16 5 3 69 5 80
21 79 12 -1 17 6 17 25 0 32 19 62 27 44 2 -7 15 -13 28 -13 30 0 33 -12 36
-140 2 -77 0 -105 -9 -104 -7 1 -18 2 -26 3 -11 1 -15 21 -15 93 0 50 -3 94
-6 97 -3 3 -5 -57 -4 -132 1 -102 4 -137 13 -137 7 0 20 -8 28 -17 21 -26 20
-232 -2 -243 -52 -26 -69 -32 -79 -26 -7 5 -11 -4 -11 -23 0 -38 14 -47 28
-17 14 32 61 41 67 12 6 -27 3 -66 -6 -66 -3 0 -7 -35 -8 -79 -2 -76 -1 -79
23 -83 22 -5 24 -3 15 14 -6 11 -8 30 -5 42 4 11 9 176 11 366 6 412 10 461
36 494 11 14 54 48 97 76 42 29 93 65 113 81 35 28 59 36 71 24 3 -3 38 -8 77
-10 40 -2 78 -8 84 -13 7 -5 28 -8 47 -7 19 1 40 -2 47 -7 6 -5 17 -8 25 -7
25 3 39 -1 33 -10 -3 -5 -1 -13 5 -16 6 -4 9 -1 8 7 -5 21 90 7 104 -15 6 -9
8 -9 8 1 0 6 9 12 20 12 11 0 20 -3 20 -8 0 -4 18 -6 40 -4 25 3 40 0 40 -7 0
-6 4 -11 10 -11 5 0 19 -8 30 -17 15 -13 20 -31 21 -73 1 -50 16 -124 18 -91
1 10 13 12 58 6 66 -8 103 -23 103 -42 0 -7 -9 -13 -20 -13 -11 0 -20 -7 -20
-15 0 -8 6 -15 14 -15 12 0 15 -22 18 -110 2 -83 0 -110 -9 -110 -8 0 -13 -14
-13 -35 0 -24 5 -35 15 -35 8 0 15 -4 15 -10 0 -5 -11 -10 -25 -10 -20 0 -25
-5 -25 -27 0 -25 1 -26 13 -8 10 13 16 15 21 6 4 -6 11 -9 15 -6 5 2 7 -7 5
-21 -2 -19 1 -24 13 -20 12 5 13 0 8 -27 -4 -17 -13 -37 -21 -43 -16 -13 -20
-49 -4 -39 6 3 22 -7 38 -23 15 -16 36 -33 47 -36 22 -7 62 -56 45 -56 -5 0
-10 -5 -10 -12 0 -6 8 -4 19 6 18 16 20 15 46 -36 15 -29 36 -65 46 -79 10
-15 23 -38 29 -53 11 -31 1 -34 -36 -10 -17 12 -23 22 -19 35 4 11 2 19 -3 19
-5 0 -14 17 -20 38 -6 20 -18 46 -27 57 -14 19 -15 19 -8 1 5 -15 3 -18 -10
-13 -20 8 -34 -9 -42 -55 -5 -28 -12 -38 -26 -38 -11 0 -19 -5 -19 -12 0 -6
-3 -9 -6 -5 -3 3 -12 0 -19 -6 -9 -9 -10 -16 -2 -25 7 -9 7 -19 -2 -35 -15
-29 -21 -125 -9 -158 5 -15 18 -29 29 -32 14 -4 19 -12 17 -24 -4 -18 -19 -21
-50 -8 -11 4 -18 3 -18 -3 0 -16 38 -25 76 -17 32 5 50 35 22 35 -9 0 -9 3 -1
11 13 13 33 4 33 -17 0 -8 5 -14 10 -14 6 0 10 5 10 10 0 11 33 13 79 4 24 -5
31 -12 31 -30 0 -28 -13 -30 -87 -10 -31 8 -55 10 -59 5 -7 -12 28 -22 121
-35 22 -3 56 -9 76 -13 25 -6 44 -4 62 6 15 7 27 9 27 4 0 -5 8 -7 18 -4 11 3
28 -5 42 -20 21 -22 24 -35 25 -121 1 -57 -2 -96 -8 -96 -6 0 -6 -5 0 -12 14
-19 14 -61 0 -70 -9 -6 -9 -8 1 -8 15 0 16 -32 0 -48 -9 -9 -8 -12 5 -12 9 0
17 -4 17 -10 0 -5 -4 -10 -9 -10 -6 0 -9 -9 -8 -19 0 -11 5 -17 11 -14 5 4 7
-4 3 -18 -4 -13 -7 -32 -7 -41 0 -9 -9 -20 -20 -23 -11 -4 -18 -11 -15 -16 3
-5 -3 -19 -14 -31 -12 -12 -21 -19 -21 -15 0 3 -26 -19 -57 -49 -76 -72 -89
-83 -148 -130 -27 -21 -53 -43 -57 -49 -5 -6 -8 -5 -8 2 0 9 -7 7 -20 -5 -11
-9 -33 -19 -48 -22 -16 -3 -28 -13 -30 -25 -5 -28 -29 -52 -58 -59 -13 -4 -24
-13 -24 -21 0 -21 -18 -19 -23 3 -3 10 -5 5 -6 -12 -1 -21 -5 -27 -16 -22 -10
3 -15 -1 -15 -13 0 -22 -33 -33 -64 -22 -24 9 -46 4 -46 -11 0 -6 11 -8 25 -4
14 4 25 2 25 -4 0 -5 -9 -10 -20 -10 -11 0 -20 -5 -20 -11 0 -7 -9 -20 -20
-29 -16 -14 -28 -16 -55 -10 -21 5 -35 4 -35 -1 0 -12 41 -28 58 -22 12 5 14
0 16 -52 1 -16 5 -36 9 -43 5 -7 4 -12 -3 -12 -7 0 -9 -8 -5 -20 3 -10 2 -28
-4 -38 -7 -13 -7 -23 2 -32 9 -10 9 -11 0 -6 -7 4 -13 2 -13 -3 0 -6 7 -11 15
-11 11 0 15 -12 15 -45 0 -25 -4 -45 -10 -45 -5 0 -10 4 -10 8 0 5 -32 8 -71
6 -40 -1 -81 1 -93 4 -20 6 -20 6 4 14 18 5 13 7 -18 4 -34 -3 -48 0 -64 16
-11 11 -23 16 -26 12 -4 -3 -1 -9 6 -11 6 -3 10 -8 8 -12 -10 -16 14 -34 47
-36 19 -1 38 -5 43 -8 6 -3 54 -8 108 -11 l98 -6 -6 82 c-3 46 -7 122 -8 170
l-2 88 115 78 c63 42 148 103 189 135 40 31 82 57 92 57 10 0 22 9 26 19 4 11
50 56 103 99 53 44 113 97 134 117 64 65 68 83 60 304 -3 108 -9 219 -12 246
-3 28 -6 60 -5 72 0 20 -2 21 -15 8 -18 -18 -33 -11 -33 15 0 23 -33 35 -60
20 -19 -10 -22 -16 -24 -50 -1 -13 -22 -17 -58 -11 -16 2 -8 60 10 71 14 9 13
10 -7 4 -21 -5 -23 -4 -17 23 9 48 11 237 2 253 -5 8 -68 109 -140 225 l-131
209 -3 183 c-2 113 1 190 7 202 12 22 15 21 -112 42 l-69 11 4 89 c2 74 0 89
-12 89 -8 0 -157 23 -331 52 l-315 52 -118 -82 c-115 -80 -119 -82 -154 -72
-20 5 -52 10 -70 10 l-33 0 2 542 c1 542 1 542 -20 556 -13 9 -21 25 -21 43 0
26 17 77 30 89 3 3 12 18 20 34 8 17 40 56 71 87 55 58 88 109 68 109 -5 0
-12 -8 -16 -17z m1130 -2165 c14 -24 37 -56 51 -72 43 -49 29 -53 -18 -5 -23
24 -53 51 -64 59 -16 11 -20 21 -16 38 9 32 19 28 47 -20z m95 -237 c7 -21 12
-41 12 -45 0 -11 -34 -6 -53 8 -17 13 -17 15 0 45 10 17 21 31 24 31 3 0 11
-17 17 -39z m-22 -80 c31 -23 44 -42 58 -85 9 -31 14 -61 11 -66 -3 -6 -2 -10
3 -10 9 0 32 -52 32 -72 0 -5 -12 -7 -27 -4 -16 3 -64 8 -108 11 -44 4 -80 7
-81 8 -1 1 -3 36 -5 77 -3 71 -1 77 31 123 19 26 37 47 40 47 3 0 24 -13 46
-29z m102 -59 c14 -30 16 -106 3 -97 -6 3 -9 13 -9 23 2 25 -22 92 -33 92 -5
0 -9 4 -9 9 0 19 35 -1 48 -27z"/>
<path d="M860 4016 c0 -23 -23 -60 -66 -105 -79 -82 -127 -210 -81 -219 9 -2
17 2 17 8 0 6 -4 8 -10 5 -15 -9 -12 28 6 71 20 48 61 108 108 157 20 21 36
45 36 53 0 13 2 13 16 0 8 -9 22 -16 30 -16 8 0 14 -9 14 -20 0 -11 5 -20 10
-20 14 0 13 33 -2 48 -7 7 -20 12 -31 12 -14 0 -17 5 -12 20 5 16 2 20 -14 20
-12 0 -21 -6 -21 -14z"/>
<path d="M2985 4000 c-6 -8 -108 -107 -228 -219 l-217 -203 35 -47 c61 -81
170 -243 218 -326 55 -97 170 -333 191 -395 l15 -45 1 34 c0 33 -11 62 -91
226 -86 176 -256 453 -315 512 -8 8 -14 19 -14 25 0 15 182 188 198 188 6 0
12 7 12 15 0 7 6 18 14 22 8 4 55 47 106 95 72 68 91 92 88 110 -3 19 -5 20
-13 8z"/>
<path d="M907 3882 c-15 -33 -17 -84 -20 -524 -2 -269 0 -494 5 -500 6 -11 14
874 8 949 0 12 6 36 15 53 9 17 15 38 13 45 -2 8 -11 -2 -21 -23z"/>
<path d="M1441 2918 c-1 -130 2 -177 11 -175 6 1 13 -15 15 -38 3 -22 9 -41
14 -43 5 -2 9 -8 9 -13 0 -6 -4 -7 -10 -4 -5 3 -10 -1 -10 -9 0 -9 -4 -16 -9
-16 -6 0 -12 21 -14 48 -2 26 -4 -21 -5 -105 -2 -130 0 -152 13 -147 12 5 14
-7 13 -70 -2 -75 -13 -101 -21 -48 -3 22 -4 20 -6 -10 -1 -30 3 -38 17 -38 13
0 18 -10 20 -42 6 -82 4 -79 33 -73 15 4 30 1 34 -4 3 -6 17 -11 30 -11 18 0
22 4 18 19 -3 10 3 31 12 45 11 17 13 26 6 26 -7 0 -9 5 -5 11 4 7 -1 9 -12 7
-14 -3 -18 -11 -16 -30 3 -35 -26 -52 -62 -38 -26 10 -36 30 -15 30 8 0 8 5
-1 15 -20 24 6 47 49 43 32 -3 35 0 36 22 0 14 3 30 6 35 10 18 9 65 -1 65 -6
0 -10 -13 -10 -28 0 -34 -16 -52 -47 -52 -25 0 -43 26 -43 65 0 20 4 26 18 23
11 -2 17 -13 17 -30 0 -39 19 -40 23 -1 2 22 9 33 25 37 18 4 23 14 25 47 1
22 -3 48 -10 56 -9 11 -9 16 1 23 8 4 10 13 6 21 -6 9 -3 11 8 6 12 -5 17 -1
17 13 0 11 -6 20 -12 20 -9 0 -8 4 2 10 10 7 11 10 2 10 -8 0 -10 8 -6 24 4
16 1 25 -11 30 -12 4 -14 10 -7 19 16 19 18 60 5 64 -8 3 -13 -4 -13 -19 0
-30 -17 -48 -47 -48 -25 0 -43 26 -43 64 0 19 5 26 19 26 14 0 19 -7 17 -27 0
-16 4 -28 9 -28 6 0 10 11 10 25 1 17 7 26 21 28 29 4 42 47 30 100 -7 30 -6
53 2 76 16 43 15 56 -3 56 -10 0 -15 -10 -15 -27 0 -42 -13 -55 -51 -51 -32 3
-34 5 -37 46 l-3 42 53 1 c29 1 56 1 61 0 4 0 7 6 7 14 0 9 -6 12 -16 8 -11
-4 -22 1 -30 12 -13 17 -14 17 -14 2 0 -11 -8 -17 -24 -17 -47 0 -56 -9 -56
-59 0 -26 5 -52 12 -59 9 -9 9 -15 0 -24 -7 -7 -12 -20 -12 -29 0 -10 -4 -20
-8 -23 -4 -2 -8 49 -7 114 0 65 -3 129 -7 142 -3 13 -6 -57 -7 -154z m127 -60
c15 -15 16 -74 1 -83 -6 -4 -16 1 -24 11 -11 15 -16 17 -26 7 -21 -21 -29 -15
-29 20 0 38 15 57 45 57 12 0 26 -5 33 -12z m-48 -248 c0 -12 7 -20 16 -20 10
0 14 6 11 14 -3 8 2 16 14 19 17 5 19 0 19 -44 0 -37 -4 -49 -15 -49 -8 0 -15
9 -15 20 0 11 -6 20 -14 20 -7 0 -16 -9 -19 -20 -10 -39 -27 -20 -27 30 0 38
4 50 15 50 8 0 15 -9 15 -20z m-32 -83 c9 -10 8 -18 -3 -33 -8 -10 -15 -30
-16 -44 -1 -23 -2 -23 -8 5 -7 27 -7 105 -1 145 1 8 6 -2 9 -22 4 -20 13 -43
19 -51z m80 -39 c16 -16 15 -63 -2 -77 -11 -9 -15 -8 -20 5 -5 13 -9 15 -18 6
-32 -32 -52 13 -28 59 12 21 50 25 68 7z"/>
<path d="M1800 2997 c0 -24 15 -28 46 -12 26 13 27 15 7 15 -12 0 -28 3 -37 6
-10 4 -16 1 -16 -9z"/>
<path d="M1915 2983 c11 -3 27 -11 36 -19 9 -8 18 -11 22 -8 10 11 58 -6 51
-17 -3 -6 -8 -33 -10 -60 -2 -37 0 -49 11 -49 9 0 14 19 17 68 2 37 3 68 3 69
-1 2 -39 8 -120 17 -16 2 -21 1 -10 -1z"/>
<path d="M1810 2864 c0 -8 10 -14 25 -14 14 0 27 0 30 0 3 0 5 3 5 8 1 4 -13
10 -30 13 -22 5 -30 3 -30 -7z"/>
<path d="M1890 2851 c0 -8 56 -21 94 -21 32 0 10 12 -31 17 -21 2 -44 6 -50 8
-7 3 -13 1 -13 -4z"/>
<path d="M2089 2794 c-1 -16 -1 -37 0 -46 2 -11 -5 -18 -16 -18 -15 0 -16 -2
-3 -10 8 -5 10 -10 4 -10 -21 0 -23 -38 -3 -43 15 -4 19 -14 19 -46 0 -23 4
-41 10 -41 5 0 7 46 4 117 -5 112 -13 161 -15 97z"/>
<path d="M950 2655 c0 -43 2 -76 4 -74 8 7 10 139 3 146 -4 3 -7 -29 -7 -72z"/>
<path d="M1020 2693 c0 -21 4 -44 9 -51 4 -8 8 8 7 38 0 27 -3 50 -8 50 -4 0
-8 -17 -8 -37z"/>
<path d="M730 2617 c-31 -28 -105 -97 -165 -151 -61 -55 -124 -113 -141 -130
-18 -17 -72 -67 -120 -111 -49 -44 -116 -106 -149 -137 -55 -54 -86 -74 -69
-46 4 7 3 8 -5 4 -6 -4 -9 -12 -5 -17 3 -5 -14 -28 -37 -51 -28 -28 -38 -43
-29 -46 8 -3 26 9 40 27 15 17 32 31 38 31 7 0 12 7 12 15 0 14 38 41 52 37 4
-1 10 7 13 18 3 10 15 22 26 25 11 4 24 18 29 31 5 13 14 24 18 24 5 0 33 23
61 50 28 28 56 50 61 50 5 0 12 9 15 20 3 11 12 20 18 20 7 0 21 11 31 25 10
14 25 25 32 25 8 0 14 7 14 15 0 8 5 15 11 15 6 0 17 7 26 15 8 8 19 13 24 10
5 -4 9 2 9 13 0 25 36 59 43 40 4 -9 6 -7 6 4 1 21 40 60 53 52 4 -3 8 5 8 18
0 18 2 20 10 8 8 -13 10 -12 10 3 0 9 7 17 15 17 9 0 18 7 21 15 4 8 10 12 15
9 5 -3 9 2 9 11 0 11 5 15 15 11 11 -4 15 1 15 19 0 15 6 25 14 25 8 0 17 7
20 16 15 39 0 32 -64 -29z"/>
<path d="M912 2585 l1 -60 7 45 c4 25 4 52 -1 60 -5 9 -8 -8 -7 -45z"/>
<path d="M1802 2618 c3 -9 34 -15 99 -19 52 -4 102 -10 112 -14 17 -7 24 -35
10 -35 -5 0 -8 -17 -8 -37 0 -37 -1 -38 -35 -37 -19 0 -47 3 -62 7 -16 4 -28
3 -28 -2 0 -5 19 -12 42 -16 46 -8 77 -30 55 -38 -6 -3 -2 -6 10 -6 17 -1 21
3 16 15 -4 10 1 22 11 30 12 8 20 30 22 64 2 28 5 56 7 63 2 11 -22 15 -192
32 -50 5 -62 4 -59 -7z"/>
<path d="M1021 2573 c1 -21 0 -89 -1 -151 -1 -62 0 -116 4 -119 3 -4 6 18 6
48 0 30 2 100 4 157 2 56 -1 102 -6 102 -4 0 -8 -17 -7 -37z"/>
<path d="M984 2566 c-3 -8 -5 -20 -3 -27 3 -26 -1 -39 -12 -39 -6 0 -8 8 -5
18 3 9 1 24 -4 32 -10 16 -11 13 -14 -49 -1 -13 -7 -26 -14 -29 -9 -3 -11 3
-6 22 4 16 2 26 -5 26 -7 0 -11 -19 -11 -47 1 -38 3 -44 11 -30 22 38 29 14
25 -93 -2 -60 1 -107 5 -104 5 3 8 53 8 112 0 59 0 112 0 118 1 7 10 14 21 17
16 4 20 14 20 46 0 42 -6 52 -16 27z"/>
<path d="M2090 2526 c0 -62 16 -67 19 -6 1 29 -3 50 -9 50 -5 0 -10 -20 -10
-44z"/>
<path d="M749 2473 c0 -5 -3 -20 -5 -35 -3 -16 0 -28 6 -28 5 0 10 16 10 35 0
19 -2 35 -5 35 -3 0 -5 -3 -6 -7z"/>
<path d="M843 2447 c1 -18 -1 -37 -4 -42 -3 -6 -2 -26 2 -45 l6 -35 2 43 c1
28 5 42 15 42 7 0 19 7 26 15 8 9 9 15 2 15 -6 0 -14 -4 -17 -10 -11 -19 -22
-10 -18 14 3 13 1 26 -5 30 -5 3 -9 -8 -9 -27z"/>
<path d="M981 2353 c-1 -59 0 -105 3 -103 8 9 15 210 7 210 -5 0 -9 -48 -10
-107z"/>
<path d="M2087 2442 c-22 -24 -21 -32 3 -32 11 0 20 4 20 9 0 5 3 16 6 25 8
22 -9 20 -29 -2z"/>
<path d="M1060 2359 c0 -37 4 -58 10 -54 6 3 10 31 10 61 0 30 -4 54 -10 54
-6 0 -10 -27 -10 -61z"/>
<path d="M584 2315 c0 -55 1 -76 3 -47 2 29 2 74 0 100 -2 26 -3 2 -3 -53z"/>
<path d="M2000 2398 c0 -5 6 -11 14 -14 8 -3 13 -11 10 -18 -2 -6 5 -12 16
-13 20 -2 20 -1 4 26 -15 26 -44 38 -44 19z"/>
<path d="M909 2335 c-2 -22 -2 -58 1 -80 l6 -40 4 45 c3 25 3 61 -1 80 l-5 35
-5 -40z"/>
<path d="M2125 2358 c-10 -25 -3 -36 18 -29 16 6 16 9 3 26 -13 18 -15 19 -21
3z"/>
<path d="M872 2280 c0 -52 2 -58 8 -32 4 17 4 47 0 65 -6 25 -8 19 -8 -33z"/>
<path d="M2163 2311 c-12 -19 -10 -20 17 -18 30 2 43 17 16 17 -8 0 -16 5 -18
10 -2 6 -9 1 -15 -9z"/>
<path d="M1923 2301 c2 -10 1 -25 -4 -33 -7 -12 -3 -15 16 -15 27 0 34 21 10
31 -8 3 -12 12 -9 21 4 8 1 15 -6 15 -7 0 -10 -8 -7 -19z"/>
<path d="M728 2258 c-17 -17 -17 -18 1 -28 15 -7 20 -6 24 9 7 29 -6 39 -25
19z"/>
<path d="M426 2206 c-16 -13 -27 -28 -25 -32 2 -5 20 6 39 24 39 37 29 43 -14
8z"/>
<path d="M980 2213 c4 -34 0 -43 -17 -44 -10 0 -13 -3 -6 -5 12 -5 63 23 63
35 0 3 -9 12 -21 19 -18 11 -20 11 -19 -5z"/>
<path d="M1440 2183 c0 -29 5 -53 10 -53 13 0 13 70 0 90 -7 11 -10 0 -10 -37z"/>
<path d="M1737 2199 c-27 -30 -16 -44 15 -20 14 12 31 21 37 21 6 0 11 5 11
10 0 17 -44 9 -63 -11z"/>
<path d="M742 2148 c-2 -53 1 -68 12 -68 8 0 18 5 21 10 4 6 1 9 -7 8 -9 -2
-15 15 -19 57 l-6 60 -1 -67z"/>
<path d="M1903 2172 c-17 -11 -5 -52 13 -45 10 3 11 10 4 23 -5 9 -6 20 -3 24
9 8 1 7 -14 -2z"/>
<path d="M870 2160 c0 -5 -6 -10 -14 -10 -8 0 -17 -7 -20 -17 -6 -15 -8 -15
-19 0 -10 14 -14 14 -25 1 -11 -12 -10 -14 4 -14 13 0 14 -3 4 -15 -10 -12 -7
-15 13 -20 32 -8 67 10 67 35 0 10 3 25 6 34 3 9 1 16 -5 16 -6 0 -11 -4 -11
-10z"/>
<path d="M1773 2120 c-18 -11 -33 -27 -33 -37 0 -14 3 -13 23 5 13 12 33 22
45 22 26 0 37 16 16 24 -20 8 -14 9 -51 -14z"/>
<path d="M1970 2130 c13 -9 11 -13 -10 -30 -14 -11 -21 -20 -17 -20 5 0 1 -10
-7 -22 -21 -30 -20 -38 5 -38 17 0 19 3 10 13 -8 11 -4 20 19 40 30 27 46 35
35 18 -3 -5 4 -12 15 -16 11 -4 18 -9 16 -13 -2 -4 10 -8 27 -8 l31 -1 -39 33
c-22 19 -46 34 -52 34 -7 0 -13 5 -13 10 0 6 -8 10 -17 10 -15 0 -16 -2 -3
-10z"/>
<path d="M2180 2108 c0 -9 5 -20 10 -23 6 -3 10 -19 10 -35 0 -18 8 -34 22
-44 12 -9 23 -14 25 -13 1 2 -13 32 -32 68 -19 35 -35 56 -35 47z"/>
<path d="M2240 2112 c0 -15 29 -48 30 -33 0 10 8 12 30 8 16 -4 32 -2 35 3 6
9 -22 15 -52 11 -7 -1 -13 3 -13 9 0 5 -7 10 -15 10 -8 0 -15 -4 -15 -8z"/>
<path d="M2130 2085 c0 -8 9 -19 19 -25 28 -15 33 -13 22 9 -13 24 -41 35 -41
16z"/>
<path d="M907 2083 c-4 -3 -7 -14 -7 -24 0 -9 -6 -19 -12 -22 -7 -2 -11 -7 -8
-10 10 -11 31 10 36 36 4 28 2 32 -9 20z"/>
<path d="M1034 2063 c-7 -28 -40 -62 -61 -63 -6 0 -13 -5 -15 -11 -6 -17 -58
-21 -58 -4 0 7 6 16 13 18 7 4 6 6 -5 6 -16 1 -38 -45 -38 -80 0 -24 3 -24 48
4 20 12 58 33 85 46 45 23 47 26 47 68 0 49 -6 56 -16 16z"/>
<path d="M170 2035 c-17 -21 -5 -45 22 -44 17 1 18 2 6 6 -10 2 -18 11 -18 18
0 8 8 19 18 24 15 9 15 10 1 11 -9 0 -22 -7 -29 -15z"/>
<path d="M790 2040 c0 -5 -7 -7 -15 -4 -8 4 -15 1 -15 -5 0 -6 7 -11 15 -11
11 0 15 -10 14 -37 -1 -35 -15 -106 -18 -92 0 3 -22 -4 -48 -17 -43 -20 -49
-21 -57 -7 -7 12 -2 23 20 42 29 24 29 24 4 18 -14 -4 -28 -7 -32 -7 -5 0 -8
-16 -8 -35 0 -20 -7 -51 -14 -70 -17 -40 -13 -43 29 -15 40 26 51 33 108 61
26 13 44 25 39 27 -5 1 -7 38 -4 82 3 56 1 80 -7 80 -6 0 -11 -4 -11 -10z"/>
<path d="M1410 2010 c-9 -17 -6 -18 43 -17 28 0 65 -2 80 -6 22 -6 28 -5 24 5
-2 7 -14 12 -26 11 -12 -2 -24 4 -27 12 -8 19 -34 19 -34 0 0 -8 -4 -15 -10
-15 -5 0 -10 4 -10 9 0 19 -30 20 -40 1z"/>
<path d="M1363 2003 c-7 -2 -13 -11 -13 -19 0 -8 -4 -14 -10 -14 -5 0 -10 4
-10 9 0 12 -38 2 -47 -12 -4 -6 3 -8 20 -3 23 5 26 3 29 -26 4 -41 18 -42 38
-3 14 28 15 29 18 8 3 -20 6 -21 24 -12 19 10 20 12 4 21 -9 5 -14 13 -11 19
4 5 -6 9 -21 9 -22 0 -25 2 -14 15 13 16 13 16 -7 8z"/>
<path d="M715 1981 c-11 -5 -23 -7 -27 -4 -5 2 -8 -2 -8 -9 0 -21 48 -19 53 3
3 11 4 19 4 18 -1 0 -11 -4 -22 -8z"/>
<path d="M1655 1970 l-30 -8 32 -1 c35 -1 57 -36 32 -52 -11 -7 -11 -9 2 -9
10 0 19 11 23 31 10 49 2 54 -59 39z"/>
<path d="M2105 1947 c-9 -45 -2 -140 10 -144 6 -2 9 27 6 78 l-3 82 32 -6 c23
-5 30 -3 28 5 -3 7 -19 14 -36 15 -28 2 -32 -1 -37 -30z"/>
<path d="M1786 1938 c-17 -24 -13 -38 12 -38 13 0 10 -6 -12 -25 -24 -21 -26
-25 -10 -25 18 1 74 77 74 101 0 18 -49 9 -64 -13z"/>
<path d="M2151 1898 c-11 -29 5 -36 24 -12 19 25 18 34 0 34 -9 0 -19 -10 -24
-22z"/>
<path d="M72 1865 c-1 -19 3 -35 8 -35 6 0 10 16 10 35 0 46 -16 46 -18 0z"/>
<path d="M125 1892 c-8 -8 -6 -62 3 -62 4 0 12 15 18 33 8 26 7 34 -3 34 -7 0
-15 -3 -18 -5z"/>
<path d="M470 1869 c-25 -16 -48 -30 -52 -31 -3 -2 -10 -16 -14 -33 -7 -27 -6
-29 9 -16 10 7 17 20 17 27 0 8 9 14 20 14 12 0 20 7 20 17 0 13 3 14 12 5 14
-14 48 2 48 23 0 25 -14 23 -60 -6z"/>
<path d="M1050 1884 c-14 -8 -74 -37 -135 -65 -165 -77 -393 -184 -554 -260
-79 -38 -145 -69 -146 -69 -2 0 -51 -22 -109 -50 -99 -46 -127 -67 -91 -67 8
0 15 4 15 8 0 4 15 11 32 14 18 4 49 18 70 31 21 13 44 24 52 24 8 0 18 5 21
11 4 6 13 8 21 5 8 -3 14 1 14 11 0 22 13 8 17 -18 2 -15 -6 -24 -34 -35 -21
-9 -51 -22 -68 -29 -122 -54 -130 -58 -111 -62 10 -3 23 0 29 6 6 6 18 11 26
11 8 0 22 7 31 15 10 9 31 17 49 18 17 1 31 7 31 14 0 6 14 16 30 22 17 5 33
17 36 25 3 8 12 12 20 9 8 -3 14 0 14 6 0 6 -4 11 -10 11 -5 0 -10 3 -10 8 0
4 18 6 40 4 42 -4 75 12 63 32 -4 6 1 5 10 -3 15 -12 17 -11 17 8 0 12 -4 19
-10 16 -5 -3 -10 1 -10 11 0 11 6 15 20 11 11 -3 20 -1 20 5 0 5 10 6 21 3 14
-5 19 -3 15 4 -9 13 88 61 124 61 14 0 36 7 48 16 41 28 163 86 169 80 4 -3
17 1 30 9 13 9 27 13 32 10 5 -3 34 8 65 24 31 17 56 28 56 26 0 -3 16 4 35
15 20 11 51 20 70 20 33 0 35 2 35 35 0 33 -2 35 -32 34 -18 0 -44 -7 -58 -15z
m-672 -366 c-2 -12 -9 -24 -17 -26 -10 -3 -12 0 -8 11 3 9 2 19 -3 22 -6 4
-10 -1 -10 -9 0 -9 -7 -16 -17 -16 -15 0 -15 1 0 18 9 10 26 18 37 19 16 1 21
-3 18 -19z"/>
<path d="M563 1850 c-3 -17 -10 -33 -14 -36 -5 -3 -7 -10 -3 -15 3 -5 0 -8 -8
-7 -7 2 -12 -3 -10 -10 2 -9 -4 -11 -18 -7 -11 4 -20 2 -20 -4 0 -21 -19 -11
-23 12 -2 13 -7 1 -12 -31 -5 -35 -14 -56 -26 -62 -29 -16 -32 -12 -27 35 3
25 4 45 2 45 -4 0 -34 -58 -34 -65 1 -21 -1 -25 -10 -20 -5 3 -10 1 -10 -5 0
-7 -7 -9 -15 -6 -11 4 -20 -3 -28 -22 -6 -15 -18 -33 -25 -41 -19 -20 -32 2
-32 56 0 23 -4 45 -10 48 -6 4 -10 -17 -10 -54 0 -34 -3 -60 -7 -60 -24 4 -53
-2 -48 -10 3 -5 1 -12 -5 -16 -13 -8 -13 -25 0 -25 12 0 85 36 235 116 61 32
124 65 141 73 29 15 31 20 32 79 2 66 -5 81 -15 32z"/>
<path d="M2649 1830 c-7 -18 -18 -30 -29 -30 -21 0 -30 -19 -30 -61 0 -21 5
-29 18 -29 9 0 13 4 7 8 -9 6 -11 23 -6 60 0 6 11 12 24 12 20 0 47 36 47 62
0 20 -22 5 -31 -22z"/>
<path d="M1354 1829 c-18 -20 -18 -21 1 -35 19 -14 20 -13 23 11 2 18 9 25 20
23 9 -2 17 -10 17 -18 0 -8 -5 -14 -11 -13 -6 1 -11 -4 -11 -11 0 -8 12 -13
29 -12 22 1 28 6 28 23 0 50 -61 70 -96 32z"/>
<path d="M1208 1826 c-10 -8 -18 -26 -18 -44 0 -23 -5 -32 -22 -37 -45 -13
-78 -28 -78 -35 0 -12 71 11 103 33 15 10 27 15 27 11 0 -3 6 -1 13 5 10 7 29
8 58 3 32 -6 48 -5 56 3 9 10 1 11 -34 7 -43 -5 -46 -4 -41 16 4 15 -1 26 -18
37 -28 18 -25 18 -46 1z m36 -15 c7 -10 -22 -37 -30 -28 -9 8 3 37 15 37 5 0
12 -4 15 -9z"/>
<path d="M1730 1827 c-16 -13 -40 -52 -40 -64 0 -5 11 -9 25 -9 21 -2 23 1 14
17 -12 24 -4 39 21 39 19 0 34 -25 24 -42 -4 -6 -1 -9 7 -6 8 2 15 17 17 31 3
21 -2 29 -23 37 -31 12 -27 12 -45 -3z"/>
<path d="M70 1780 c0 -22 4 -40 9 -40 6 0 9 18 8 40 -1 22 -5 40 -9 40 -4 0
-8 -18 -8 -40z"/>
<path d="M1649 1813 c-1 -5 -1 -12 0 -17 1 -5 -10 -6 -24 -4 -28 6 -36 -16 -9
-26 30 -12 44 -6 44 18 0 13 6 27 13 29 7 3 5 6 -5 6 -10 1 -19 -2 -19 -6z"/>
<path d="M1865 1778 c2 -27 45 -40 45 -14 0 9 5 16 10 16 6 0 10 5 10 10 0 6
-15 10 -33 10 -29 0 -33 -3 -32 -22z"/>
<path d="M1987 1773 c-8 -10 -17 -27 -19 -38 -3 -17 3 -20 40 -22 35 -1 42 1
42 17 0 10 6 21 13 24 8 3 6 9 -7 20 -26 21 -49 20 -69 -1z"/>
<path d="M2162 1778 c-7 -7 -12 -21 -12 -33 0 -12 -5 -26 -12 -33 -9 -9 -8
-12 6 -12 9 0 14 5 11 10 -4 6 12 10 39 10 37 0 46 3 46 18 -1 42 -50 68 -78
40z m46 -25 c2 -8 -5 -13 -17 -13 -12 0 -21 6 -21 16 0 18 31 15 38 -3z"/>
<path d="M1016 1768 c-9 -5 -16 -22 -16 -38 0 -24 4 -30 21 -30 26 0 49 23 49
48 0 23 -29 34 -54 20z"/>
<path d="M310 1717 c0 -21 12 -28 27 -16 19 16 16 29 -7 29 -11 0 -20 -6 -20
-13z"/>
<path d="M167 1700 c-14 -11 -30 -20 -36 -20 -6 0 -11 -9 -11 -21 0 -19 1 -19
22 -5 32 23 38 20 38 -16 0 -49 17 -21 22 35 2 26 0 47 -3 47 -4 0 -18 -9 -32
-20z"/>
<path d="M939 1713 c-1 -5 -1 -16 0 -25 1 -10 -4 -18 -12 -18 -26 0 -117 -33
-117 -42 0 -5 9 -6 20 -3 13 4 20 2 20 -7 1 -9 4 -8 10 3 5 9 22 20 37 24 16
3 36 13 45 22 9 8 22 12 27 8 6 -3 11 0 11 7 0 24 -38 52 -41 31z"/>
<path d="M108 1624 c-8 -8 3 -44 13 -44 5 0 9 11 9 25 0 24 -10 32 -22 19z"/>
<path d="M546 1601 c-4 -5 -4 -16 0 -24 3 -8 -2 -22 -11 -31 -11 -11 -14 -23
-9 -34 6 -16 7 -15 12 2 2 10 18 31 34 47 30 26 30 27 10 38 -25 13 -29 14
-36 2z"/>
<path d="M715 1600 c-3 -5 -18 -10 -33 -10 -15 -1 -40 -7 -57 -15 l-30 -14 30
1 c17 1 35 -1 41 -5 7 -4 14 0 18 8 3 8 12 15 21 15 8 0 15 5 15 11 0 6 9 8
21 4 15 -5 19 -4 15 4 -9 14 -33 14 -41 1z"/>
<path d="M110 1560 c0 -5 -6 -10 -14 -10 -8 0 -23 -16 -35 -35 -13 -22 -28
-35 -41 -35 -11 0 -20 -7 -20 -14 0 -11 14 -8 55 14 69 36 103 60 87 60 -6 0
-12 7 -12 15 0 8 -4 15 -10 15 -5 0 -10 -4 -10 -10z"/>
<path d="M466 1521 c-22 -8 -11 -18 18 -17 11 1 21 7 23 14 5 13 -12 15 -41 3z"/>
<path d="M1405 1040 c3 -5 15 -10 25 -10 10 0 20 -4 22 -9 5 -13 193 -133 273
-174 80 -41 178 -86 248 -112 26 -10 47 -21 47 -24 0 -4 17 -5 37 -3 35 4 32
6 -63 43 -54 21 -108 43 -119 48 -11 5 -54 26 -95 45 -86 41 -133 68 -260 149
-82 52 -130 72 -115 47z"/>
<path d="M2986 724 c-9 -23 -7 -67 4 -84 7 -11 10 2 10 43 0 59 -3 69 -14 41z"/>
<path d="M2980 565 c-9 -11 -8 -19 4 -37 16 -22 16 -22 16 15 0 41 -2 44 -20
22z"/>
<path d="M2085 482 c6 -5 105 -13 220 -17 252 -8 352 -12 548 -19 135 -5 147
-4 146 12 0 9 -3 12 -5 5 -3 -7 -18 -10 -37 -7 -18 2 -160 8 -317 14 -157 5
-348 13 -425 16 -92 4 -137 3 -130 -4z"/>
<path d="M32 432 c-74 -8 -21 -19 141 -31 94 -6 197 -14 227 -16 30 -3 172
-12 315 -20 143 -9 348 -23 455 -31 359 -28 339 -28 422 -6 l77 20 3 -45 c2
-33 9 -50 24 -60 18 -11 23 -11 33 0 8 11 6 19 -9 37 -11 13 -20 27 -20 32 0
5 -9 18 -19 29 -18 20 -23 20 -113 9 -72 -10 -128 -10 -253 -1 -330 25 -415
30 -620 41 -115 6 -244 15 -285 20 -41 5 -133 12 -204 15 -72 3 -132 7 -135 8
-4 2 -21 1 -39 -1z"/>
<path d="M2290 260 c0 -9 50 -23 57 -16 3 2 2 9 -1 14 -7 11 -56 13 -56 2z"/>
<path d="M2402 159 c2 -6 6 -10 8 -9 3 1 16 -3 30 -8 14 -5 36 -5 50 -1 21 6
18 7 -17 8 -23 1 -45 6 -48 11 -8 13 -28 13 -23 -1z"/>
<path d="M2822 110 c15 -23 33 -27 25 -6 -4 11 -1 13 11 10 14 -5 15 -4 2 5
-8 6 -23 11 -33 11 -15 0 -15 -3 -5 -20z"/>
</g>
</svg>
